<svg xmlns="http://www.w3.org/2000/svg" width="48" height="48" viewBox="0 0 24 24"><path fill="#000" d="M9.77 17.15c.78.07 1.64.1 2.25.1s1.47-.03 2.25-.1l-.38 2.33a.68.68 0 0 1-.23.43l-.35.32c-.02.02-.05.04-.07.07l-.37.44c-.13.16-.35.26-.58.26h-.55c-.23 0-.45-.1-.59-.27l-.37-.44c-.02-.02-.04-.05-.07-.07l-.35-.32a.73.73 0 0 1-.23-.43zm2.25-14.07a6.89 6.89 0 0 0-6.89 6.89c0 2.93 1.83 5.43 4.4 6.43c.35.08.67.12.99.15v-6.37c0-.83.67-1.5 1.5-1.5s1.5.67 1.5 1.5v6.41c.47-.03.87-.08 1.08-.22a6.9 6.9 0 0 0 4.32-6.4c-.01-3.8-3.09-6.89-6.9-6.89m0 6.6c.28 0 .5.22.5.5v6.2c0 .28-.22.25-.5.25s-.5.03-.5-.25v-6.2c0-.27.22-.5.5-.5"/></svg>