<svg xmlns="http://www.w3.org/2000/svg" width="48" height="48" viewBox="0 0 24 24"><path fill="#000" fill-rule="evenodd" d="M12 3.5a.5.5 0 0 1 .5.5v.716h.304c.872 0 1.571.712 1.571 1.581a.5.5 0 0 1-1 0a.576.576 0 0 0-.571-.58h-1.608c-.295 0-.496.2-.544.504c-.05.31.084.576.354.673l2.36.85c1.563.564 1.167 2.905-.512 2.905h-.329v.851a.5.5 0 0 1-1 0v-.851h-.329a1.576 1.576 0 0 1-1.571-1.581a.5.5 0 0 1 1 0c0 .325.26.58.571.58h1.658c.554 0 .686-.778.174-.962l-2.361-.851c-.826-.298-1.109-1.106-1.003-1.772c.107-.671.635-1.347 1.532-1.347h.304V4a.5.5 0 0 1 .5-.5M7.504 13.756c.498-.312 1.11-.506 1.929-.506H12.5c.48 0 .89.15 1.183.422a1.363 1.363 0 0 1 0 2.006c-.294.272-.703.422-1.183.422h-2c-.26 0-.408.083-.491.165a.46.46 0 0 0-.134.33c0 .125.047.244.134.33c.083.083.232.166.491.166h3.001c.848 0 1.646-.296 2.436-.745c.603-.342 1.17-.753 1.744-1.17q.282-.205.568-.408l.035-.023c.758-.446 1.554-.168 1.95.384c.196.273.303.624.254.99c-.048.362-.241.699-.568.964l-.014.015l-.11.11a15.6 15.6 0 0 1-1.84 1.554c-1.165.837-2.793 1.738-4.455 1.738H4a.5.5 0 0 1-.5-.5v-3.5A.5.5 0 0 1 4 16c.666 0 1.105-.15 1.44-.356c.35-.214.616-.503.93-.853l.025-.028c.295-.33.64-.714 1.109-1.007m11.713 2.615l.058-.052c.163-.127.21-.247.222-.331a.4.4 0 0 0-.075-.276c-.12-.167-.349-.262-.615-.114q-.246.175-.506.364c-.583.424-1.214.881-1.87 1.254c-.87.494-1.842.875-2.93.875H10.5c-.49 0-.904-.166-1.197-.457a1.46 1.46 0 0 1-.428-1.038c0-.374.14-.753.428-1.04c.293-.29.706-.456 1.197-.456h2.001c.27 0 .423-.081.504-.156a.36.36 0 0 0 .12-.269a.36.36 0 0 0-.12-.269c-.081-.075-.234-.156-.504-.156H9.433c-.647 0-1.072.15-1.4.354c-.342.214-.603.503-.92.855l-.007.008c-.301.337-.655.73-1.143 1.03a3.4 3.4 0 0 1-1.463.478V19.5h9.001c1.337 0 2.75-.743 3.874-1.55a14.6 14.6 0 0 0 1.813-1.548l.023-.024l.005-.006z" clip-rule="evenodd"/></svg>