<?xml version="1.0" encoding="UTF-8" standalone="no"?> <svg id="Layer_1" data-name="Layer 1" xmlns="http://www.w3.org/2000/svg" viewBox="0 0 512 512"><title>Mobile Payment</title><circle cx="256" cy="469.333" r="10.667"/><path d="M426.667,170.667H405.333V53.333A53.394,53.394,0,0,0,352,0H160a53.394,53.394,0,0,0-53.333,53.333V458.667A53.4,53.4,0,0,0,160,512H352a53.4,53.4,0,0,0,53.333-53.333V352h21.333a32.035,32.035,0,0,0,32-32V202.667A32.035,32.035,0,0,0,426.667,170.667Zm0,21.333a10.679,10.679,0,0,1,10.667,10.667v10.667H224V202.667A10.679,10.679,0,0,1,234.667,192ZM160,21.333H352a32.035,32.035,0,0,1,32,32H128A32.035,32.035,0,0,1,160,21.333ZM384,458.667a32.035,32.035,0,0,1-32,32H160a32.035,32.035,0,0,1-32-32V448H384Zm0-32H128v-352H384v96H234.667a32.035,32.035,0,0,0-32,32V320a32.035,32.035,0,0,0,32,32H384ZM437.333,320a10.681,10.681,0,0,1-10.667,10.667h-192A10.681,10.681,0,0,1,224,320V234.667H437.333Z"/><path d="M256,309.333h32A10.667,10.667,0,1,0,288,288H256a10.667,10.667,0,1,0,0,21.333Z"/></svg>